<?xml version="1.0" standalone="no"?>
<!DOCTYPE svg PUBLIC "-//W3C//DTD SVG 20010904//EN"
 "http://www.w3.org/TR/2001/REC-SVG-20010904/DTD/svg10.dtd">
<svg version="1.0" xmlns="http://www.w3.org/2000/svg"
 width="512.000000pt" height="512.000000pt" viewBox="0 0 512.000000 512.000000"
 preserveAspectRatio="xMidYMid meet">
<metadata>
Created by potrace 1.11, written by Peter Selinger 2001-2013
</metadata>
<g transform="translate(0.000000,512.000000) scale(0.100000,-0.100000)"
fill="#000000" stroke="none">
<path d="M4205 5106 c-92 -18 -200 -64 -279 -117 -71 -47 -316 -282 -316 -302
0 -6 -2 -8 -5 -5 -3 3 -739 -729 -1635 -1625 -1381 -1381 -1631 -1635 -1640
-1668 -6 -21 -10 -41 -9 -46 1 -4 -1 -15 -4 -23 -5 -12 -224 -920 -242 -1004
-2 -11 -11 -50 -20 -86 -9 -36 -18 -72 -20 -80 -2 -8 -10 -44 -19 -80 -8 -35
-14 -65 -12 -67 1 -1 74 15 162 36 87 21 240 58 339 81 99 23 216 51 260 62
44 11 91 22 105 24 14 3 48 11 75 18 42 12 158 39 215 51 8 2 35 8 60 15 25 7
50 13 55 14 104 22 133 30 150 41 43 27 2854 2848 2848 2858 -3 5 -1 7 4 4 8
-5 540 516 654 640 69 76 137 205 165 315 18 67 24 252 12 323 -30 172 -123
332 -262 453 -69 59 -212 134 -301 158 -77 20 -263 26 -340 10z"/>
</g>
</svg>
